_________________________  Visit us at _________________________
  
http://p2pdl.com  ____________________________  http://p2pdl.com


Dancing Queen 2012 BRRip 720p x264 Korean ESubs - PRiSTiNE [P2PDL]

Genre: Comedy | Drama | Family
Plot: The next major of Seoul candidate's wife becomes 
a dance singer in this movie as Hwang Jeong-min takes on 
the role of poor lawyer turned politician and Uhm Jung-hwa 
as the wife who makes an attempt at singing without her 
husband knowing at first.
Director: Seok-hoon Lee
Stars: Jeong-hwa Eom, Jeong-min Hwang, Mi-ran Ra
Rated: Rated R for sustained sequences of graphic war violence, and for language

Info: 
http://www.imdb.com/title/tt2181885/

General
Complete name                  : Dancing Queen 2012 BRRip 720p x264 Korean ESubs - PRiSTiNE.mp4
Format                         : MPEG-4
Format profile                 : Base Media
File size                      : 701 MiB
Duration                       : 2h 4mn
Overall bit rate mode          : Variable
Overall bit rate               : 787 Kbps

Video
Format                         : AVC
Format/Info                    : Advanced Video Codec
Format profile                 : High 10@L4.1
Bit rate                       : 704 Kbps
Width                          : 1 280 pixels
Height                         : 544 pixels
Display aspect ratio           : 2.35:1
Frame rate mode                : Constant
Frame rate                     : 23.976 fps
Bit depth                      : 10 bits
Stream size                    : 627 MiB (89%)
Writing library                : x264 core 130 r2273 b3065e6

Audio
Format                         : AAC
Bit rate mode                  : Variable
Bit rate                       : 79.9 Kbps
Channel(s)                     : 2 channels
Channel positions              : Front: L R
Sampling rate                  : 48.0 KHz / 24.0 KHz
Stream size                    : 71.2 MiB (10%)
Language                       : Korean

Subtitle                       : Yes (English)
Source                         : Bluray.720p.DTS.x264-CHD (Thanks)

Screens:
 
http://www.ultraimg.com/images/rZwdH.jpg 
http://www.ultraimg.com/images/YMAs.jpg 
http://www.ultraimg.com/images/WsJQZ.jpg 
http://www.ultraimg.com/images/sZ4fc.jpg

----------------------------------------------------------------------------------------------------


Encoded using revolutionary 10bit encoding, which enables us to provide you more crispier 
and sharper images at small sizes, just make sure you follow our instructions without a fault.
Recommend to you to use latest version of VLC player. Install K-Lite Codec Pack or shark007 codecs
in case of any kind of problem in playback (For non-VLC Media Player users). Alternatively, install
Core AVC codecs, the fastest decoder that there is coupled with Community Center Codec Pack and play
on Windows Media Player Classic. Check sample to be sure.
Enjoy!

Encoder Notes:Looking For Early Access To Anything You Can Provide DVDScr, R5, DVDR, BluRay, Direct
Audio, Music Releases and Seedboxes. We require dedicated servers, so as to do more 
and fast releases of movies.
If You Got anything to offer please contact us at "prg@hush.com".

Face book Fan Page:   
http://www.fb.me/p2pdl